<?xml version="1.0" encoding="UTF-8" standalone="no"?>
<!DOCTYPE svg PUBLIC "-//W3C//DTD SVG 1.1//EN" "http://www.w3.org/Graphics/SVG/1.1/DTD/svg11.dtd">
<svg version="1.1" xmlns="http://www.w3.org/2000/svg" xmlns:xlink="http://www.w3.org/1999/xlink" preserveAspectRatio="xMidYMid meet" viewBox="0 0 640 640" width="600" height="900"><defs><path d="M20.8 5.37C6.98 5.37 0 12.08 0 25.38C0 32.49 0 89.41 0 96.52C0 98.26 0.94 99.34 2.95 99.34C4.52 99.34 17.09 99.34 18.66 99.34C20.54 99.34 21.75 98.26 21.75 96.52C21.75 96.25 21.75 94.09 21.75 93.82C21.75 87.23 24.52 83.64 31.43 82.95C35.56 82.95 68.63 82.95 72.76 82.95C87.92 82.95 94.77 76.37 94.77 62.01C94.77 58.44 94.77 29.88 94.77 26.31C94.77 11.95 87.92 5.37 72.76 5.37C62.37 5.37 26 5.37 20.8 5.37ZM62.01 65.36C59.81 65.36 42.2 65.36 40 65.36C30.74 65.36 24.83 68.45 21.74 74.49C21.74 70.11 21.74 35 21.74 30.61C21.74 24.57 23.22 22.96 30.6 22.96C33.74 22.96 58.87 22.96 62.01 22.96C71.28 22.96 73.05 24.57 73.05 32.35C73.05 33.93 73.05 41.8 73.05 55.97C71.87 62.23 68.19 65.36 62.01 65.36Z" id="dbYehx8B0"></path><path d="M127.52 60.95C127.52 64.53 127.52 93.2 127.52 96.79C127.52 98.4 126.72 99.34 124.84 99.34C123.41 99.34 112.03 99.34 110.61 99.34C108.73 99.34 107.79 98.4 107.79 96.79C107.79 90.24 107.79 37.83 107.79 31.28C107.79 29.67 108.73 28.72 110.61 28.72C111.8 28.72 121.36 28.72 122.55 28.72C124.3 28.72 125.24 29.67 125.24 31.28C125.24 32.34 125.24 40.79 125.24 41.85C127.52 33.13 134.1 28.69 145.78 28.69C146.27 28.69 150.13 28.69 150.62 28.69C152.36 28.69 153.29 29.64 153.29 31.25C153.29 32.34 153.29 41.06 153.29 42.15C153.29 43.9 152.36 44.7 150.62 44.7C150.21 44.7 148.2 44.7 144.57 44.7C133.21 48.73 127.52 54.15 127.52 60.95Z" id="e3gyeih0An"></path><path d="M217.2 99.34C213.71 99.34 185.78 99.34 182.29 99.34C168.33 99.34 162.29 93.43 162.29 80.14C162.29 76.92 162.29 51.16 162.29 47.94C162.29 34.65 168.33 28.74 182.29 28.74C185.78 28.74 213.71 28.74 217.2 28.74C231.29 28.74 237.19 34.65 237.19 47.94C237.19 50.08 237.19 60.82 237.19 80.14C233.26 92.94 226.59 99.34 217.2 99.34ZM207.8 44.7C206.2 44.7 193.42 44.7 191.82 44.7C183.37 44.7 182.02 46.04 182.02 53.03C182.02 55.23 182.02 72.84 182.02 75.04C182.02 82.02 183.37 83.37 191.82 83.37C193.42 83.37 206.2 83.37 207.8 83.37C216.12 83.37 217.46 82.02 217.46 75.04C217.46 73.57 217.46 66.24 217.46 53.03C216.57 47.48 213.35 44.7 207.8 44.7Z" id="cix7oQ3sx"></path><path d="M250.34 44.7C248.59 44.7 247.66 43.9 247.66 42.15C247.66 41.07 247.66 32.37 247.66 31.28C247.66 29.67 248.59 28.72 250.34 28.72C250.79 28.72 253.03 28.72 257.05 28.72C257.05 23.49 257.05 20.59 257.05 20C257.06 6.71 264.04 0 277.86 0C279.52 0 292.72 0 294.38 0C296.26 0 297.06 0.94 297.06 2.55C297.06 3.64 297.06 12.34 297.06 13.42C297.06 15.17 296.26 15.97 294.38 15.97C293.5 15.97 286.53 15.97 285.65 15.97C278.27 15.97 276.79 17.58 276.79 23.63C276.79 23.97 276.79 25.67 276.79 28.72C287.34 28.72 293.2 28.72 294.38 28.72C296.26 28.72 297.06 29.67 297.06 31.28C297.06 32.37 297.06 41.07 297.06 42.15C297.06 43.9 296.26 44.7 294.38 44.7C293.2 44.7 287.34 44.7 276.79 44.7C276.79 75.95 276.79 93.32 276.79 96.79C276.79 98.4 275.86 99.34 273.98 99.34C272.55 99.34 261.17 99.34 259.75 99.34C257.87 99.34 257.06 98.4 257.06 96.79C257.06 93.32 257.06 75.95 257.06 44.7C253.03 44.7 250.79 44.7 250.34 44.7Z" id="a63mLwggWX"></path><path d="M304.14 44.7C302.39 44.7 301.46 43.9 301.46 42.15C301.46 41.07 301.46 32.37 301.46 31.28C301.46 29.67 302.39 28.72 304.14 28.72C304.58 28.72 306.82 28.72 310.86 28.72C310.86 23.49 310.86 20.59 310.86 20C310.84 6.71 317.83 0 331.64 0C333.3 0 346.5 0 348.16 0C350.04 0 350.84 0.94 350.84 2.55C350.84 3.64 350.84 12.34 350.84 13.42C350.84 15.17 350.04 15.97 348.16 15.97C347.28 15.97 340.3 15.97 339.43 15.97C332.05 15.97 330.57 17.58 330.57 23.63C330.57 23.97 330.57 25.67 330.57 28.72C341.12 28.72 346.98 28.72 348.16 28.72C350.04 28.72 350.84 29.67 350.84 31.28C350.84 32.37 350.84 41.07 350.84 42.15C350.84 43.9 350.04 44.7 348.16 44.7C346.98 44.7 341.12 44.7 330.57 44.7C330.57 75.95 330.57 93.32 330.57 96.79C330.57 98.4 329.63 99.34 327.75 99.34C326.33 99.34 314.94 99.34 313.52 99.34C311.64 99.34 310.84 98.4 310.84 96.79C310.84 93.32 310.84 75.95 310.84 44.7C306.82 44.7 304.58 44.7 304.14 44.7Z" id="aZr8kz6tO"></path><path d="M382.57 126.72C369.42 126.72 363.78 121.63 363.78 109C363.78 108.87 363.78 107.8 363.78 107.66C363.74 107.3 363.78 106.94 363.9 106.6C364.03 106.25 364.22 105.94 364.48 105.69C364.74 105.43 365.05 105.24 365.39 105.12C365.73 105 366.1 104.96 366.46 105.01C367.83 105.01 378.78 105.01 380.15 105.01C382.03 105.01 382.97 105.95 382.97 107.69C382.97 107.76 382.97 108.3 382.97 108.36C382.97 111.05 384.45 112.12 387.41 112.12C389.1 112.12 402.63 112.12 404.32 112.12C412.37 112.12 414.39 110.11 414.39 103.26C414.39 101.15 414.39 84.21 414.39 82.09C411.3 88.13 405.39 91.22 396.13 91.22C394.76 91.22 383.8 91.22 382.43 91.22C368.47 91.22 362.29 85.31 362.29 72.02C362.29 67.95 362.29 35.36 362.29 31.28C362.27 30.93 362.33 30.58 362.46 30.25C362.59 29.92 362.79 29.63 363.04 29.39C363.3 29.14 363.6 28.96 363.94 28.84C364.27 28.73 364.62 28.69 364.97 28.72C366.41 28.72 377.9 28.72 379.34 28.72C381.08 28.72 382.03 29.67 382.03 31.28C382.03 34.85 382.03 63.39 382.03 66.96C382.03 73.94 383.5 75.29 391.83 75.29C392.85 75.29 401.01 75.29 402.03 75.29C410.89 75.29 414.38 71.66 414.38 64.27C414.38 60.98 414.38 34.58 414.38 31.28C414.38 29.67 415.32 28.72 417.07 28.72C418.5 28.72 430 28.72 431.44 28.72C431.78 28.69 432.13 28.73 432.46 28.85C432.78 28.97 433.08 29.16 433.32 29.4C433.56 29.64 433.75 29.94 433.86 30.27C433.98 30.59 434.02 30.94 433.99 31.28C433.99 38.69 433.99 97.97 433.99 105.38C433.98 119.46 426.46 126.72 411.83 126.72C405.98 126.72 385.49 126.72 382.57 126.72Z" id="bN5qQ7OIG"></path></defs><g><g><g><use xlink:href="#dbYehx8B0" opacity="1" fill="#1f2ba2" fill-opacity="1"></use><g><use xlink:href="#dbYehx8B0" opacity="1" fill-opacity="0" stroke="#000000" stroke-width="1" stroke-opacity="0"></use></g></g><g><use xlink:href="#e3gyeih0An" opacity="1" fill="#1f2ba2" fill-opacity="1"></use><g><use xlink:href="#e3gyeih0An" opacity="1" fill-opacity="0" stroke="#000000" stroke-width="1" stroke-opacity="0"></use></g></g><g><use xlink:href="#cix7oQ3sx" opacity="1" fill="#1f2ba2" fill-opacity="1"></use><g><use xlink:href="#cix7oQ3sx" opacity="1" fill-opacity="0" stroke="#000000" stroke-width="1" stroke-opacity="0"></use></g></g><g><use xlink:href="#a63mLwggWX" opacity="1" fill="#1f2ba2" fill-opacity="1"></use><g><use xlink:href="#a63mLwggWX" opacity="1" fill-opacity="0" stroke="#000000" stroke-width="1" stroke-opacity="0"></use></g></g><g><use xlink:href="#aZr8kz6tO" opacity="1" fill="#1f2ba2" fill-opacity="1"></use><g><use xlink:href="#aZr8kz6tO" opacity="1" fill-opacity="0" stroke="#000000" stroke-width="1" stroke-opacity="0"></use></g></g><g><use xlink:href="#bN5qQ7OIG" opacity="1" fill="#1f2ba2" fill-opacity="1"></use><g><use xlink:href="#bN5qQ7OIG" opacity="1" fill-opacity="0" stroke="#000000" stroke-width="1" stroke-opacity="0"></use></g></g></g></g></svg>
